<svg width="181" height="38" viewBox="0 0 181 38" fill="none" xmlns="http://www.w3.org/2000/svg">
<g clip-path="url(#clip0_336_203)">
<path fill-rule="evenodd" clip-rule="evenodd" d="M147.199 20.4492V13.8065C147.199 12.0658 148.571 10.9292 150.001 11.5901C150.545 11.8417 151.172 12.6991 151.172 13.5467V20.6456C151.172 21.7887 150.352 22.8604 149.348 22.8604C148.655 22.8604 148.101 22.7029 147.692 22.107C147.366 21.6296 147.199 21.2237 147.199 20.4508V20.4492ZM142.704 13.9364V20.2543C142.704 23.7778 143.707 27.3533 147.653 27.3533C150.099 27.3533 150.449 26.1225 151.17 25.5948C151.17 26.7915 151.227 28.1294 151.17 29.3083C151.12 30.3686 150.514 31.3266 149.412 31.3266C148.61 31.3266 147.999 31.2454 147.543 30.3296C146.429 28.0953 149.269 28.3957 143.225 28.3957C142.845 28.3957 142.965 28.9868 142.965 29.633C142.965 31.3331 143.743 32.9925 144.61 33.8498C145.193 34.4279 145.513 34.7234 146.286 35.105C148.256 36.0776 151.422 35.8746 153.135 34.5269C154.645 33.34 155.665 31.6822 155.665 29.3066V8.00973C155.665 7.70609 155.514 7.55346 155.208 7.55346C150.813 7.55346 151.17 7.23359 151.17 8.66085C150.79 8.38319 149.922 6.90234 147.913 6.90234C143.727 6.90234 142.702 10.2472 142.702 13.9364H142.704Z" fill="white"/>
<path fill-rule="evenodd" clip-rule="evenodd" d="M62.9883 22.2077H60.9034V15.6949C62.256 15.6949 63.3455 15.4952 64.1136 16.2632C64.4302 16.5798 64.7468 17.041 64.7468 17.6483V20.5142C64.7468 21.2757 63.9902 22.2077 62.9883 22.2077ZM62.6619 11.2004H60.9034V5.40368C62.3745 5.40368 63.3715 5.16337 64.0697 6.08078C64.5747 6.74327 64.4854 7.80356 64.4854 8.6609C64.4854 9.99723 63.7872 11.2004 62.6619 11.2004ZM56.4089 1.36546V26.1144C56.4089 26.3791 56.4788 26.7006 56.7353 26.7006H63.6394C64.4805 26.7006 65.4239 26.457 65.9857 26.181C68.0203 25.1759 69.2413 23.0082 69.2413 20.774V17.5184C69.2413 16.1577 68.6779 15.25 67.9943 14.4008C67.9066 14.292 67.9034 14.2563 67.7929 14.1459C67.6143 13.9673 67.0671 13.5435 66.8301 13.4801L67.2311 13.1651C69.2056 11.5804 68.9149 9.03923 68.9149 6.83744C68.9149 5.56606 68.3353 3.74585 67.4649 2.81545C67.046 2.3673 67.348 2.60761 66.8512 2.19194C65.4418 1.01473 64.2499 0.844238 62.2073 0.844238H57.0617C56.6736 0.844238 56.4106 0.977384 56.4106 1.36546H56.4089Z" fill="white"/>
<path fill-rule="evenodd" clip-rule="evenodd" d="M104.28 0.519528C104.246 0.665664 104.215 0.668911 104.215 0.845898V26.3109C104.215 26.4863 104.246 26.4912 104.28 26.6373C104.923 26.7867 107.418 26.7022 108.253 26.7022C108.81 26.7022 108.644 26.1924 108.644 25.0736L108.64 20.9006C108.648 20.4314 109.297 19.6877 109.425 19.6017C109.472 19.8046 109.539 19.8923 109.622 20.0563C109.7 20.2106 109.747 20.3518 109.817 20.5126L112.009 25.0282C112.166 25.3448 112.285 25.5802 112.444 25.8953C112.572 26.1518 112.71 26.699 113.007 26.699H117.437C118.211 26.699 117.275 25.2685 117.133 24.9843C116.898 24.5135 116.687 24.0913 116.461 23.6383L113.769 18.189C113.532 17.7149 113.334 17.3171 113.097 16.8429C112.926 16.5019 112.498 15.7469 112.424 15.4319L116.089 10.3691C116.365 9.99889 117.765 8.16407 117.765 7.94162C117.765 7.69319 117.572 7.5503 117.309 7.5503H112.554C112.139 7.5503 111.861 8.24526 111.484 8.75998C111.307 9.00192 111.199 9.15942 111.03 9.41272C110.858 9.67252 110.718 9.84464 110.547 10.1028L109.141 12.1471C109.008 12.3484 108.804 12.7089 108.646 12.8242L108.649 1.03263C108.653 0.732237 108.678 0.449707 108.385 0.449707H104.91C104.595 0.462697 104.363 0.483805 104.281 0.514656L104.28 0.519528Z" fill="white"/>
<path fill-rule="evenodd" clip-rule="evenodd" d="M131.763 20.8389V13.4135C131.763 12.8501 132.057 12.3419 132.333 12.0285C133.538 10.658 135.672 11.7086 135.672 13.4135V20.8389C135.672 21.8732 134.853 22.8572 133.653 22.8572C132.642 22.8572 131.765 21.8293 131.765 20.8389H131.763ZM127.269 13.0888V21.2302C127.269 24.4208 128.789 27.3517 132.088 27.3517C133.311 27.3517 134.158 27.1389 135.069 26.2946L135.672 25.6581C135.672 26.0608 135.616 26.7005 135.998 26.7005H139.775C139.975 26.7005 140.166 26.6405 140.166 26.4407V7.87983C140.166 7.7272 139.992 7.55346 139.84 7.55346H136.128C135.587 7.55346 135.672 8.12664 135.672 8.66085C134.939 7.81813 133.983 6.90234 132.414 6.90234C130.586 6.90234 129.316 7.61029 128.524 8.67871C127.762 9.70653 127.269 11.3254 127.269 13.0904V13.0888Z" fill="white"/>
<path fill-rule="evenodd" clip-rule="evenodd" d="M162.699 13.4153C162.699 12.7236 163.127 11.8988 163.694 11.6097C164.999 10.9472 166.345 11.9247 166.345 13.2838V15.1073H162.699V13.4137V13.4153ZM158.204 13.2854V20.9706C158.204 22.3101 158.577 23.5572 159.207 24.5915C159.792 25.5495 160.653 26.2769 161.654 26.7689C163.566 27.7074 166.375 27.5402 168.234 26.3126C168.434 26.1811 168.492 26.1324 168.675 25.9717C169.375 25.3579 169.916 24.7084 170.291 23.8105C170.655 22.9401 171.025 21.4609 170.773 20.386C170.13 20.2366 167.635 20.3211 166.8 20.3211C166.105 20.3211 166.576 21.081 166.082 21.948C165.157 23.5783 162.697 22.958 162.697 20.7757V19.4085H170.577C170.859 19.4085 170.902 19.0026 170.903 18.7054V18.6908V14.7176C170.903 12.0481 170.643 10.6566 169.471 9.11567C167.844 6.97397 164.373 6.32609 161.895 7.40425C159.571 8.41584 158.202 10.6972 158.202 13.2854H158.204Z" fill="white"/>
<path fill-rule="evenodd" clip-rule="evenodd" d="M89.3643 13.9364V20.3193C89.3643 22.0615 89.5981 23.432 90.496 24.7878C91.4183 26.1793 93.1346 27.3533 95.2909 27.3533C97.4375 27.3533 98.6894 26.9993 100.16 25.5152C100.609 25.0638 101.047 24.3234 101.312 23.6707C101.836 22.3717 101.804 21.3763 101.804 19.9945C101.804 19.8419 101.63 19.6681 101.477 19.6681H97.7005C97.1014 19.6681 97.595 20.86 97.202 21.7741C96.4519 23.518 93.8588 23.2128 93.8588 20.5791V13.8065C93.8588 11.2345 96.0979 10.6938 97.0786 12.2802C97.4423 12.8679 97.3758 13.4947 97.3758 14.3926C97.5105 14.4819 97.5446 14.5875 97.7021 14.5875H101.544C101.929 14.5875 101.804 13.7155 101.804 13.1553C101.804 9.73089 99.4363 6.90234 95.6173 6.90234C93.8977 6.90234 91.959 7.59893 90.9555 8.8833C89.7328 10.4486 89.3659 11.7524 89.3659 13.9364H89.3643Z" fill="white"/>
<path fill-rule="evenodd" clip-rule="evenodd" d="M119.454 0.714302V22.3376C119.454 23.5927 120.011 24.7634 120.837 25.5785C122.099 26.8239 123.675 26.8304 125.382 26.8304C125.533 26.8304 125.708 26.6567 125.708 26.5041V22.8572C125.708 22.7013 125.603 22.6656 125.513 22.5308C123.568 22.5308 123.885 22.5373 123.885 18.1678V1.69017C123.885 1.29398 124.029 0.452881 123.625 0.452881H119.848C119.648 0.452881 119.457 0.512959 119.457 0.712678L119.454 0.714302Z" fill="white"/>
<path fill-rule="evenodd" clip-rule="evenodd" d="M76.2735 8.98583V7.74854C76.1323 7.65436 76.0576 7.55369 75.8173 7.55369H72.1704C72.0177 7.55369 71.844 7.72743 71.844 7.88006V26.441C71.844 26.6407 72.0356 26.7008 72.2353 26.7008C73.0699 26.7008 75.5656 26.7852 76.2086 26.6358C76.371 25.9392 76.28 17.0071 76.2735 15.2388C76.2622 12.0758 78.1522 12.3729 80.3767 12.3729C80.466 12.2382 80.5716 12.2041 80.5716 12.0466V7.68359C80.5716 7.12503 80.0893 7.22732 79.5291 7.22732C77.3127 7.22732 76.7379 8.67407 76.2719 8.98583H76.2735Z" fill="white"/>
<path fill-rule="evenodd" clip-rule="evenodd" d="M82.3303 8.0746V26.1143C82.3303 26.379 82.4001 26.7005 82.6567 26.7005C83.5059 26.7005 86.1136 26.7865 86.7599 26.6355C86.794 26.4894 86.8248 26.4861 86.8248 26.3091V7.87813C86.8248 7.66704 86.5877 7.55176 86.3685 7.55176H82.7866C82.4748 7.55176 82.3303 7.77259 82.3303 8.07298V8.0746Z" fill="white"/>
<path fill-rule="evenodd" clip-rule="evenodd" d="M82.3303 1.04076V5.01404C82.3303 5.24948 82.3855 5.37775 82.4602 5.53526C83.1048 5.68626 85.6574 5.6002 86.4985 5.6002C86.6511 5.6002 86.8248 5.42647 86.8248 5.27383C86.8248 4.3613 86.9125 1.17553 86.7599 0.519539C86.6283 0.488688 86.4173 0.46758 86.1575 0.45459H82.6567C82.4018 0.45459 82.3303 0.776089 82.3303 1.04076Z" fill="white"/>
<path fill-rule="evenodd" clip-rule="evenodd" d="M0.00699483 18.8563C4.95614 22.9335 0.755536 22.3473 8.40495 22.3473C14.6303 22.3473 40.6653 22.6217 44.6207 22.3051L44.6597 15.4659C40.6263 15.1461 14.8804 15.4237 8.63227 15.4237C7.25372 15.4237 4.05821 15.8069 3.03688 15.0649C1.9912 14.305 1.11113 12.6569 0.0199847 11.9343L0.00537109 18.8563H0.00699483Z" fill="#7B3E00"/>
<path fill-rule="evenodd" clip-rule="evenodd" d="M0.00699483 32.4745C4.78565 36.6442 1.12412 35.9655 8.40495 35.9655C14.6303 35.9655 40.6653 36.2399 44.6207 35.9233L44.6516 29.1263C39.592 28.8373 26.5908 29.0987 20.6609 29.0987C16.6519 29.0987 12.6413 29.0987 8.63227 29.0987C6.99392 29.0987 4.19948 29.5339 3.05962 28.6636C1.7655 27.6763 1.23291 26.405 0.0199847 25.5525L0.00537109 32.4745H0.00699483Z" fill="#7B3E00"/>
<path fill-rule="evenodd" clip-rule="evenodd" d="M0.000488281 5.23815C4.88306 9.17409 0.607765 8.67235 8.40656 8.67235H32.4638C36.3478 8.67235 40.7595 8.86558 44.5785 8.64475L44.6629 1.8478L0.0638139 1.80396L0.000488281 5.23815Z" fill="#7B3E00"/>
<path d="M177.513 11.8226L177.521 11.7417C177.469 11.7372 177.432 11.7301 177.409 11.7222C177.397 11.7173 177.389 11.7132 177.384 11.7099C177.381 11.7077 177.38 11.7063 177.38 11.706C177.371 11.6926 177.363 11.6769 177.357 11.6587L177.357 11.6587L177.355 11.6526L176.965 10.6849L176.965 10.6849L176.964 10.683C176.917 10.5735 176.871 10.4726 176.826 10.3858C176.779 10.2932 176.724 10.2167 176.662 10.1537C176.599 10.0887 176.527 10.0402 176.445 10.0068C176.362 9.97284 176.268 9.95692 176.167 9.95692H175.893H175.812V10.0381V11.6911C175.812 11.6952 175.811 11.6977 175.809 11.6997C175.808 11.7011 175.8 11.709 175.775 11.7178C175.748 11.7258 175.708 11.7344 175.658 11.7403C175.607 11.7463 175.539 11.7495 175.455 11.7495C175.372 11.7495 175.304 11.7463 175.251 11.7403C175.199 11.7344 175.159 11.7258 175.132 11.7178C175.121 11.7137 175.113 11.7098 175.108 11.7065C175.104 11.7045 175.103 11.7032 175.102 11.7028C175.098 11.6961 175.097 11.6916 175.097 11.6911V7.76325C175.097 7.67731 175.119 7.63375 175.144 7.61177C175.178 7.58248 175.22 7.56678 175.276 7.56678H176.396C176.51 7.56678 176.602 7.56842 176.672 7.5731C176.744 7.57792 176.809 7.58267 176.869 7.58892C177.036 7.61245 177.184 7.65284 177.315 7.71086L177.315 7.71087L177.316 7.71118C177.447 7.76775 177.557 7.84014 177.644 7.92897L177.644 7.92897L177.644 7.92945C177.733 8.01855 177.801 8.12266 177.849 8.24448C177.896 8.36418 177.919 8.50617 177.919 8.67092C177.919 8.80884 177.902 8.93191 177.868 9.04109L177.868 9.04139C177.833 9.15312 177.784 9.2501 177.718 9.3363C177.653 9.42224 177.572 9.49581 177.475 9.56137C177.376 9.62645 177.265 9.67852 177.137 9.7187L176.939 9.78062L177.126 9.8695C177.186 9.89772 177.24 9.93175 177.292 9.97323L177.292 9.97324L177.293 9.97411C177.344 10.013 177.393 10.0632 177.44 10.1227C177.487 10.1815 177.532 10.2505 177.575 10.3289C177.618 10.4072 177.66 10.497 177.701 10.5968L177.701 10.5968L177.702 10.5979L178.068 11.4505C178.101 11.535 178.122 11.5925 178.132 11.6285L178.132 11.6285L178.132 11.6294C178.138 11.6481 178.141 11.6628 178.143 11.6741V11.6959C178.143 11.7039 178.143 11.71 178.141 11.7154C178.138 11.7171 178.133 11.7195 178.124 11.7223C178.097 11.7298 178.055 11.7371 177.994 11.7416C177.933 11.7463 177.848 11.7479 177.737 11.7479C177.644 11.7479 177.574 11.7463 177.52 11.7417L177.513 11.8226ZM177.513 11.8226C177.458 11.8177 177.413 11.8096 177.38 11.7982M177.513 11.8226C177.57 11.8275 177.643 11.8291 177.737 11.8291C177.848 11.8291 177.936 11.8275 178.001 11.8226C178.065 11.8177 178.114 11.8096 178.148 11.7999L177.38 11.7982M177.38 11.7982C177.348 11.7852 177.325 11.7706 177.312 11.7511C177.299 11.7317 177.288 11.7089 177.28 11.6829L176.89 10.7152C176.843 10.6064 176.797 10.5074 176.754 10.4229C176.71 10.3369 176.659 10.2671 176.604 10.2102C176.549 10.1534 176.486 10.1112 176.414 10.0819C176.343 10.0527 176.26 10.0381 176.167 10.0381L177.38 11.7982ZM176.339 9.46006C176.47 9.46006 176.588 9.44483 176.692 9.41076C176.795 9.37875 176.883 9.33169 176.956 9.26834C177.03 9.20548 177.082 9.12792 177.118 9.0429C177.153 8.95734 177.171 8.86223 177.171 8.7586V8.67742H177.166C177.155 8.55531 177.12 8.44635 177.058 8.3531C176.98 8.23531 176.855 8.15631 176.694 8.11201L176.694 8.112L176.693 8.11171C176.644 8.09901 176.589 8.09036 176.531 8.08366C176.469 8.07664 176.386 8.07339 176.286 8.07339H175.891H175.81V8.15457V9.37887V9.46006H175.891H176.339Z" fill="white" stroke="white" stroke-width="0.162373"/>
<path fill-rule="evenodd" clip-rule="evenodd" d="M176.62 5.57104C178.876 5.57104 180.706 7.39937 180.706 9.65636C180.706 11.9117 178.877 13.7417 176.62 13.7417C174.365 13.7417 172.535 11.9134 172.535 9.65636C172.535 7.40099 174.363 5.57104 176.62 5.57104Z" stroke="white" stroke-width="0.589416" stroke-miterlimit="2.61313" stroke-linecap="round" stroke-linejoin="round"/>
<path d="M59.7977 34.7543H61.2558C61.121 35.7903 60.6485 36.3521 59.6288 36.3521C58.4906 36.3521 58.0018 35.6717 58.0018 33.936C58.0018 32.348 58.424 31.5199 59.6045 31.5199C60.3628 31.5199 60.9278 31.9144 61.1308 32.8026H62.4135C62.1684 31.2536 61.2493 30.3264 59.6142 30.3264C57.7421 30.3264 56.7629 31.45 56.7629 33.9262C56.7629 36.2742 57.6057 37.5455 59.5038 37.5455C60.4829 37.5455 61.1227 37.1802 61.5107 36.4706L61.5952 37.388H62.4476V33.759H59.7993V34.7543H59.7977ZM64.7826 30.4839H63.568V37.388H67.5397V36.1946H64.7826V30.4839ZM70.9479 37.5455C72.8542 37.5455 73.8495 36.4511 73.8495 33.9555C73.8495 31.6287 73.0068 30.3264 70.956 30.3264C69.0757 30.3264 68.0723 31.4403 68.0723 33.9555C68.0723 36.2628 68.8987 37.5455 70.9479 37.5455ZM70.9641 36.3521C69.834 36.3521 69.3112 35.662 69.3112 33.9555C69.3112 32.3577 69.7496 31.5199 70.9479 31.5199C72.0699 31.5199 72.609 32.2294 72.609 33.9555C72.609 35.5337 72.1706 36.3521 70.9641 36.3521ZM78.5794 33.7882C79.1445 33.6015 79.5066 33.1761 79.5066 32.3382C79.5066 31.2243 79.0341 30.4839 77.5338 30.4839H74.8595V37.388H77.5159C78.8652 37.388 79.7599 36.9139 79.7599 35.4347C79.7599 34.5968 79.4725 33.9847 78.5794 33.7882ZM78.2839 32.4762C78.2839 33.0381 78.0988 33.3547 77.3568 33.3547H76.0756V31.5994H77.3568C77.9559 31.5994 78.2839 31.7764 78.2839 32.4779V32.4762ZM76.074 36.2725V34.35H77.4071C78.1151 34.35 78.5291 34.5481 78.5291 35.3259C78.5291 35.9267 78.2937 36.2725 77.4071 36.2725H76.074ZM85.883 37.3864L83.6065 30.4823H82.241L80.0067 37.3864H81.2375L81.7344 35.7091H84.1294L84.6262 37.3864H85.883ZM82.931 31.6757L83.8079 34.6342H82.0542L82.931 31.6757ZM87.8396 30.4823H86.625V37.3864H90.5967V36.193H87.8396V30.4823ZM95.5312 30.4823H94.3167V37.3864H98.2883V36.193H95.5312V30.4823ZM98.087 30.4823V31.6855H99.9332V37.3864H101.148V31.6855H102.996V30.4823H98.087ZM103.83 30.4823V37.3864H106.064C107.971 37.3864 108.982 36.3797 108.982 33.9538C108.982 31.6855 108.13 30.4823 106.064 30.4823H103.83ZM105.045 36.2027V31.666H106.064C107.22 31.666 107.743 32.2473 107.743 33.9538C107.743 35.5029 107.313 36.2027 106.064 36.2027H105.045Z" fill="white"/>
</g>
<defs>
<clipPath id="clip0_336_203">
<rect width="181" height="37.091" fill="white" transform="translate(0 0.45459)"/>
</clipPath>
</defs>
</svg>
