<svg width="181" height="39" viewBox="0 0 181 39" fill="none" xmlns="http://www.w3.org/2000/svg">
<path fill-rule="evenodd" clip-rule="evenodd" d="M147.199 20.9492V14.3065C147.199 12.5658 148.571 11.4292 150.001 12.0901C150.545 12.3417 151.172 13.1991 151.172 14.0467V21.1456C151.172 22.2887 150.352 23.3604 149.348 23.3604C148.655 23.3604 148.101 23.2029 147.692 22.607C147.366 22.1296 147.199 21.7237 147.199 20.9508V20.9492ZM142.704 14.4364V20.7543C142.704 24.2778 143.707 27.8533 147.653 27.8533C150.099 27.8533 150.449 26.6225 151.17 26.0948C151.17 27.2915 151.227 28.6294 151.17 29.8083C151.12 30.8686 150.514 31.8266 149.412 31.8266C148.61 31.8266 147.999 31.7454 147.543 30.8296C146.429 28.5953 149.269 28.8957 143.225 28.8957C142.845 28.8957 142.965 29.4868 142.965 30.133C142.965 31.8331 143.743 33.4925 144.61 34.3498C145.193 34.9279 145.513 35.2234 146.286 35.605C148.256 36.5776 151.422 36.3746 153.135 35.0269C154.645 33.84 155.665 32.1822 155.665 29.8066V8.50973C155.665 8.20609 155.514 8.05346 155.208 8.05346C150.813 8.05346 151.17 7.73359 151.17 9.16085C150.79 8.88319 149.922 7.40234 147.913 7.40234C143.727 7.40234 142.702 10.7472 142.702 14.4364H142.704Z" fill="#191919"/>
<path fill-rule="evenodd" clip-rule="evenodd" d="M62.9883 22.7077H60.9034V16.1949C62.256 16.1949 63.3455 15.9952 64.1136 16.7632C64.4302 17.0798 64.7468 17.541 64.7468 18.1483V21.0142C64.7468 21.7757 63.9902 22.7077 62.9883 22.7077ZM62.6619 11.7004H60.9034V5.90368C62.3745 5.90368 63.3715 5.66337 64.0697 6.58078C64.5747 7.24327 64.4854 8.30356 64.4854 9.1609C64.4854 10.4972 63.7872 11.7004 62.6619 11.7004ZM56.4089 1.86546V26.6144C56.4089 26.8791 56.4788 27.2006 56.7353 27.2006H63.6394C64.4805 27.2006 65.4239 26.957 65.9857 26.681C68.0203 25.6759 69.2413 23.5082 69.2413 21.274V18.0184C69.2413 16.6577 68.6779 15.75 67.9943 14.9008C67.9066 14.792 67.9034 14.7563 67.7929 14.6459C67.6143 14.4673 67.0671 14.0435 66.8301 13.9801L67.2311 13.6651C69.2056 12.0804 68.9149 9.53923 68.9149 7.33744C68.9149 6.06606 68.3353 4.24585 67.4649 3.31545C67.046 2.8673 67.348 3.10761 66.8512 2.69194C65.4418 1.51473 64.2499 1.34424 62.2073 1.34424H57.0617C56.6736 1.34424 56.4106 1.47738 56.4106 1.86546H56.4089Z" fill="#191919"/>
<path fill-rule="evenodd" clip-rule="evenodd" d="M104.28 1.01953C104.246 1.16566 104.215 1.16891 104.215 1.3459V26.8109C104.215 26.9863 104.246 26.9912 104.28 27.1373C104.923 27.2867 107.418 27.2022 108.253 27.2022C108.81 27.2022 108.644 26.6924 108.644 25.5736L108.64 21.4006C108.648 20.9314 109.297 20.1877 109.425 20.1017C109.472 20.3046 109.539 20.3923 109.622 20.5563C109.7 20.7106 109.747 20.8518 109.817 21.0126L112.009 25.5282C112.166 25.8448 112.285 26.0802 112.444 26.3953C112.572 26.6518 112.71 27.199 113.007 27.199H117.437C118.211 27.199 117.275 25.7685 117.133 25.4843C116.898 25.0135 116.687 24.5913 116.461 24.1383L113.769 18.689C113.532 18.2149 113.334 17.8171 113.097 17.3429C112.926 17.0019 112.498 16.2469 112.424 15.9319L116.089 10.8691C116.365 10.4989 117.765 8.66407 117.765 8.44162C117.765 8.19319 117.572 8.0503 117.309 8.0503H112.554C112.139 8.0503 111.861 8.74526 111.484 9.25998C111.307 9.50192 111.199 9.65942 111.03 9.91272C110.858 10.1725 110.718 10.3446 110.547 10.6028L109.141 12.6471C109.008 12.8484 108.804 13.2089 108.646 13.3242L108.649 1.53263C108.653 1.23224 108.678 0.949707 108.385 0.949707H104.91C104.595 0.962697 104.363 0.983805 104.281 1.01466L104.28 1.01953Z" fill="#191919"/>
<path fill-rule="evenodd" clip-rule="evenodd" d="M131.763 21.3389V13.9135C131.763 13.3501 132.057 12.8419 132.333 12.5285C133.538 11.158 135.672 12.2086 135.672 13.9135V21.3389C135.672 22.3732 134.853 23.3572 133.653 23.3572C132.642 23.3572 131.765 22.3293 131.765 21.3389H131.763ZM127.269 13.5888V21.7302C127.269 24.9208 128.789 27.8517 132.088 27.8517C133.311 27.8517 134.158 27.6389 135.069 26.7946L135.672 26.1581C135.672 26.5608 135.616 27.2005 135.998 27.2005H139.775C139.975 27.2005 140.166 27.1405 140.166 26.9407V8.37983C140.166 8.2272 139.992 8.05346 139.84 8.05346H136.128C135.587 8.05346 135.672 8.62664 135.672 9.16085C134.939 8.31813 133.983 7.40234 132.414 7.40234C130.586 7.40234 129.316 8.11029 128.524 9.17871C127.762 10.2065 127.269 11.8254 127.269 13.5904V13.5888Z" fill="#191919"/>
<path fill-rule="evenodd" clip-rule="evenodd" d="M162.699 13.9153C162.699 13.2236 163.127 12.3988 163.694 12.1097C164.999 11.4472 166.345 12.4247 166.345 13.7838V15.6073H162.699V13.9137V13.9153ZM158.204 13.7854V21.4706C158.204 22.8101 158.577 24.0572 159.207 25.0915C159.792 26.0495 160.653 26.7769 161.654 27.2689C163.566 28.2074 166.375 28.0402 168.234 26.8126C168.434 26.6811 168.492 26.6324 168.675 26.4717C169.375 25.8579 169.916 25.2084 170.291 24.3105C170.655 23.4401 171.025 21.9609 170.773 20.886C170.13 20.7366 167.635 20.8211 166.8 20.8211C166.105 20.8211 166.576 21.581 166.082 22.448C165.157 24.0783 162.697 23.458 162.697 21.2757V19.9085H170.577C170.859 19.9085 170.902 19.5026 170.903 19.2054V19.1908V15.2176C170.903 12.5481 170.643 11.1566 169.471 9.61567C167.844 7.47397 164.373 6.82609 161.895 7.90425C159.571 8.91584 158.202 11.1972 158.202 13.7854H158.204Z" fill="#191919"/>
<path fill-rule="evenodd" clip-rule="evenodd" d="M89.3643 14.4364V20.8193C89.3643 22.5615 89.5981 23.932 90.496 25.2878C91.4183 26.6793 93.1346 27.8533 95.2909 27.8533C97.4375 27.8533 98.6894 27.4993 100.16 26.0152C100.609 25.5638 101.047 24.8234 101.312 24.1707C101.836 22.8717 101.804 21.8763 101.804 20.4945C101.804 20.3419 101.63 20.1681 101.477 20.1681H97.7005C97.1014 20.1681 97.595 21.36 97.202 22.2741C96.4519 24.018 93.8588 23.7128 93.8588 21.0791V14.3065C93.8588 11.7345 96.0979 11.1938 97.0786 12.7802C97.4423 13.3679 97.3758 13.9947 97.3758 14.8926C97.5105 14.9819 97.5446 15.0875 97.7021 15.0875H101.544C101.929 15.0875 101.804 14.2155 101.804 13.6553C101.804 10.2309 99.4363 7.40234 95.6173 7.40234C93.8977 7.40234 91.959 8.09893 90.9555 9.3833C89.7328 10.9486 89.3659 12.2524 89.3659 14.4364H89.3643Z" fill="#191919"/>
<path fill-rule="evenodd" clip-rule="evenodd" d="M119.454 1.2143V22.8376C119.454 24.0927 120.011 25.2634 120.837 26.0785C122.099 27.3239 123.675 27.3304 125.382 27.3304C125.533 27.3304 125.708 27.1567 125.708 27.0041V23.3572C125.708 23.2013 125.603 23.1656 125.513 23.0308C123.568 23.0308 123.885 23.0373 123.885 18.6678V2.19017C123.885 1.79398 124.029 0.952881 123.625 0.952881H119.848C119.648 0.952881 119.457 1.01296 119.457 1.21268L119.454 1.2143Z" fill="#191919"/>
<path fill-rule="evenodd" clip-rule="evenodd" d="M76.2735 9.48583V8.24854C76.1323 8.15436 76.0576 8.05369 75.8173 8.05369H72.1704C72.0177 8.05369 71.844 8.22743 71.844 8.38006V26.941C71.844 27.1407 72.0356 27.2008 72.2353 27.2008C73.0699 27.2008 75.5656 27.2852 76.2086 27.1358C76.371 26.4392 76.28 17.5071 76.2735 15.7388C76.2622 12.5758 78.1522 12.8729 80.3767 12.8729C80.466 12.7382 80.5716 12.7041 80.5716 12.5466V8.18359C80.5716 7.62503 80.0893 7.72732 79.5291 7.72732C77.3127 7.72732 76.7379 9.17407 76.2719 9.48583H76.2735Z" fill="#191919"/>
<path fill-rule="evenodd" clip-rule="evenodd" d="M82.3303 8.5746V26.6143C82.3303 26.879 82.4001 27.2005 82.6567 27.2005C83.5059 27.2005 86.1136 27.2865 86.7599 27.1355C86.794 26.9894 86.8248 26.9861 86.8248 26.8091V8.37813C86.8248 8.16704 86.5877 8.05176 86.3685 8.05176H82.7866C82.4748 8.05176 82.3303 8.27259 82.3303 8.57298V8.5746Z" fill="#191919"/>
<path fill-rule="evenodd" clip-rule="evenodd" d="M82.3303 1.54076V5.51404C82.3303 5.74948 82.3855 5.87775 82.4602 6.03526C83.1048 6.18626 85.6574 6.1002 86.4985 6.1002C86.6511 6.1002 86.8248 5.92647 86.8248 5.77383C86.8248 4.8613 86.9125 1.67553 86.7599 1.01954C86.6283 0.988688 86.4173 0.96758 86.1575 0.95459H82.6567C82.4018 0.95459 82.3303 1.27609 82.3303 1.54076Z" fill="#191919"/>
<path fill-rule="evenodd" clip-rule="evenodd" d="M0.00699483 19.3563C4.95614 23.4335 0.755536 22.8473 8.40495 22.8473C14.6303 22.8473 40.6653 23.1217 44.6207 22.8051L44.6597 15.9659C40.6263 15.6461 14.8804 15.9237 8.63227 15.9237C7.25372 15.9237 4.05821 16.3069 3.03688 15.5649C1.9912 14.805 1.11113 13.1569 0.0199847 12.4343L0.00537109 19.3563H0.00699483Z" fill="#7B3E00"/>
<path fill-rule="evenodd" clip-rule="evenodd" d="M0.00699483 32.9745C4.78565 37.1442 1.12412 36.4655 8.40495 36.4655C14.6303 36.4655 40.6653 36.7399 44.6207 36.4233L44.6516 29.6263C39.592 29.3373 26.5908 29.5987 20.6609 29.5987C16.6519 29.5987 12.6413 29.5987 8.63227 29.5987C6.99392 29.5987 4.19948 30.0339 3.05962 29.1636C1.7655 28.1763 1.23291 26.905 0.0199847 26.0525L0.00537109 32.9745H0.00699483Z" fill="#7B3E00"/>
<path fill-rule="evenodd" clip-rule="evenodd" d="M0.000488281 5.73815C4.88306 9.67409 0.607765 9.17235 8.40656 9.17235H32.4638C36.3478 9.17235 40.7595 9.36558 44.5785 9.14475L44.6629 2.3478L0.0638139 2.30396L0.000488281 5.73815Z" fill="#7B3E00"/>
<path d="M177.513 12.3226L177.521 12.2417C177.469 12.2372 177.432 12.2301 177.409 12.2222C177.397 12.2173 177.389 12.2132 177.384 12.2099C177.381 12.2077 177.38 12.2063 177.38 12.206C177.371 12.1926 177.363 12.1769 177.357 12.1587L177.357 12.1587L177.355 12.1526L176.965 11.1849L176.965 11.1849L176.964 11.183C176.917 11.0735 176.871 10.9726 176.826 10.8858C176.779 10.7932 176.724 10.7167 176.662 10.6537C176.599 10.5887 176.527 10.5402 176.445 10.5068C176.362 10.4728 176.268 10.4569 176.167 10.4569H175.893H175.812V10.5381V12.1911C175.812 12.1952 175.811 12.1977 175.809 12.1997C175.808 12.2011 175.8 12.209 175.775 12.2178C175.748 12.2258 175.708 12.2344 175.658 12.2403C175.607 12.2463 175.539 12.2495 175.455 12.2495C175.372 12.2495 175.304 12.2463 175.251 12.2403C175.199 12.2344 175.159 12.2258 175.132 12.2178C175.121 12.2137 175.113 12.2098 175.108 12.2065C175.104 12.2045 175.103 12.2032 175.102 12.2028C175.098 12.1961 175.097 12.1916 175.097 12.1911V8.26325C175.097 8.17731 175.119 8.13375 175.144 8.11177C175.178 8.08248 175.22 8.06678 175.276 8.06678H176.396C176.51 8.06678 176.602 8.06842 176.672 8.0731C176.744 8.07792 176.809 8.08267 176.869 8.08892C177.036 8.11245 177.184 8.15284 177.315 8.21086L177.315 8.21087L177.316 8.21118C177.447 8.26775 177.557 8.34014 177.644 8.42897L177.644 8.42897L177.644 8.42945C177.733 8.51855 177.801 8.62266 177.849 8.74448C177.896 8.86418 177.919 9.00617 177.919 9.17092C177.919 9.30884 177.902 9.43191 177.868 9.54109L177.868 9.54139C177.833 9.65312 177.784 9.7501 177.718 9.8363C177.653 9.92224 177.572 9.99581 177.475 10.0614C177.376 10.1265 177.265 10.1785 177.137 10.2187L176.939 10.2806L177.126 10.3695C177.186 10.3977 177.24 10.4318 177.292 10.4732L177.292 10.4732L177.293 10.4741C177.344 10.513 177.393 10.5632 177.44 10.6227C177.487 10.6815 177.532 10.7505 177.575 10.8289C177.618 10.9072 177.66 10.997 177.701 11.0968L177.701 11.0968L177.702 11.0979L178.068 11.9505C178.101 12.035 178.122 12.0925 178.132 12.1285L178.132 12.1285L178.132 12.1294C178.138 12.1481 178.141 12.1628 178.143 12.1741V12.1959C178.143 12.2039 178.143 12.21 178.141 12.2154C178.138 12.2171 178.133 12.2195 178.124 12.2223C178.097 12.2298 178.055 12.2371 177.994 12.2416C177.933 12.2463 177.848 12.2479 177.737 12.2479C177.644 12.2479 177.574 12.2463 177.52 12.2417L177.513 12.3226ZM177.513 12.3226C177.458 12.3177 177.413 12.3096 177.38 12.2982M177.513 12.3226C177.57 12.3275 177.643 12.3291 177.737 12.3291C177.848 12.3291 177.936 12.3275 178.001 12.3226C178.065 12.3177 178.114 12.3096 178.148 12.2999L177.38 12.2982M177.38 12.2982C177.348 12.2852 177.325 12.2706 177.312 12.2511C177.299 12.2317 177.288 12.2089 177.28 12.1829L176.89 11.2152C176.843 11.1064 176.797 11.0074 176.754 10.9229C176.71 10.8369 176.659 10.7671 176.604 10.7102C176.549 10.6534 176.486 10.6112 176.414 10.5819C176.343 10.5527 176.26 10.5381 176.167 10.5381L177.38 12.2982ZM176.339 9.96006C176.47 9.96006 176.588 9.94483 176.692 9.91076C176.795 9.87875 176.883 9.83169 176.956 9.76834C177.03 9.70548 177.082 9.62792 177.118 9.5429C177.153 9.45734 177.171 9.36223 177.171 9.2586V9.17742H177.166C177.155 9.05531 177.12 8.94635 177.058 8.8531C176.98 8.73531 176.855 8.65631 176.694 8.61201L176.694 8.612L176.693 8.61171C176.644 8.59901 176.589 8.59036 176.531 8.58366C176.469 8.57664 176.386 8.57339 176.286 8.57339H175.891H175.81V8.65457V9.87887V9.96006H175.891H176.339Z" fill="#191919" stroke="#191919" stroke-width="0.162373"/>
<path fill-rule="evenodd" clip-rule="evenodd" d="M176.62 6.07104C178.876 6.07104 180.706 7.89937 180.706 10.1564C180.706 12.4117 178.877 14.2417 176.62 14.2417C174.365 14.2417 172.535 12.4134 172.535 10.1564C172.535 7.90099 174.363 6.07104 176.62 6.07104Z" stroke="#191919" stroke-width="0.589416" stroke-miterlimit="2.61313" stroke-linecap="round" stroke-linejoin="round"/>
<path d="M59.7977 35.2543H61.2558C61.121 36.2903 60.6485 36.8521 59.6288 36.8521C58.4906 36.8521 58.0018 36.1717 58.0018 34.436C58.0018 32.848 58.424 32.0199 59.6045 32.0199C60.3628 32.0199 60.9278 32.4144 61.1308 33.3026H62.4135C62.1684 31.7536 61.2493 30.8264 59.6142 30.8264C57.7421 30.8264 56.7629 31.95 56.7629 34.4262C56.7629 36.7742 57.6057 38.0455 59.5038 38.0455C60.4829 38.0455 61.1227 37.6802 61.5107 36.9706L61.5952 37.888H62.4476V34.259H59.7993V35.2543H59.7977ZM64.7826 30.9839H63.568V37.888H67.5397V36.6946H64.7826V30.9839ZM70.9479 38.0455C72.8542 38.0455 73.8495 36.9511 73.8495 34.4555C73.8495 32.1287 73.0068 30.8264 70.956 30.8264C69.0757 30.8264 68.0723 31.9403 68.0723 34.4555C68.0723 36.7628 68.8987 38.0455 70.9479 38.0455ZM70.9641 36.8521C69.834 36.8521 69.3112 36.162 69.3112 34.4555C69.3112 32.8577 69.7496 32.0199 70.9479 32.0199C72.0699 32.0199 72.609 32.7294 72.609 34.4555C72.609 36.0337 72.1706 36.8521 70.9641 36.8521ZM78.5794 34.2882C79.1445 34.1015 79.5066 33.6761 79.5066 32.8382C79.5066 31.7243 79.0341 30.9839 77.5338 30.9839H74.8595V37.888H77.5159C78.8652 37.888 79.7599 37.4139 79.7599 35.9347C79.7599 35.0968 79.4725 34.4847 78.5794 34.2882ZM78.2839 32.9762C78.2839 33.5381 78.0988 33.8547 77.3568 33.8547H76.0756V32.0994H77.3568C77.9559 32.0994 78.2839 32.2764 78.2839 32.9779V32.9762ZM76.074 36.7725V34.85H77.4071C78.1151 34.85 78.5291 35.0481 78.5291 35.8259C78.5291 36.4267 78.2937 36.7725 77.4071 36.7725H76.074ZM85.883 37.8864L83.6065 30.9823H82.241L80.0067 37.8864H81.2375L81.7344 36.2091H84.1294L84.6262 37.8864H85.883ZM82.931 32.1757L83.8079 35.1342H82.0542L82.931 32.1757ZM87.8396 30.9823H86.625V37.8864H90.5967V36.693H87.8396V30.9823ZM95.5312 30.9823H94.3167V37.8864H98.2883V36.693H95.5312V30.9823ZM98.087 30.9823V32.1855H99.9332V37.8864H101.148V32.1855H102.996V30.9823H98.087ZM103.83 30.9823V37.8864H106.064C107.971 37.8864 108.982 36.8797 108.982 34.4538C108.982 32.1855 108.13 30.9823 106.064 30.9823H103.83ZM105.045 36.7027V32.166H106.064C107.22 32.166 107.743 32.7473 107.743 34.4538C107.743 36.0029 107.313 36.7027 106.064 36.7027H105.045Z" fill="#191919"/>
</svg>
